<mxfile host="app.diagrams.net" modified="2024-04-22T12:27:19.360Z" agent="Mozilla/5.0 (Windows NT 10.0; Win64; x64) AppleWebKit/537.36 (KHTML, like Gecko) Chrome/123.0.0.0 Safari/537.36" etag="aQn7OuTI0x0GGdIdXvJC" version="24.2.7" type="github">
  <diagram name="Page-1" id="74e2e168-ea6b-b213-b513-2b3c1d86103e">
    <mxGraphModel dx="1434" dy="780" grid="1" gridSize="10" guides="1" tooltips="1" connect="1" arrows="1" fold="1" page="1" pageScale="1" pageWidth="1100" pageHeight="850" background="none" math="0" shadow="0">
      <root>
        <mxCell id="0" />
        <mxCell id="1" parent="0" />
        <mxCell id="77e6c97f196da883-1" value="&lt;font style=&quot;font-size: 10px;&quot;&gt;MoodTune&lt;/font&gt;" style="swimlane;html=1;childLayout=stackLayout;startSize=20;rounded=0;shadow=0;labelBackgroundColor=none;strokeWidth=1;fontFamily=Verdana;fontSize=8;align=center;" parent="1" vertex="1">
          <mxGeometry x="70" y="40" width="960" height="690" as="geometry" />
        </mxCell>
        <mxCell id="77e6c97f196da883-2" value="ユーザー（会話）" style="swimlane;html=1;startSize=20;" parent="77e6c97f196da883-1" vertex="1">
          <mxGeometry y="20" width="160" height="670" as="geometry" />
        </mxCell>
        <mxCell id="cdU9Sef9xlhLWkmTLOWl-19" value="最後の質問に&lt;div&gt;答える&lt;/div&gt;" style="shape=loopLimit;whiteSpace=wrap;html=1;flipH=1;flipV=1;" vertex="1" parent="77e6c97f196da883-2">
          <mxGeometry x="30" y="290" width="100" height="80" as="geometry" />
        </mxCell>
        <mxCell id="cdU9Sef9xlhLWkmTLOWl-18" style="edgeStyle=orthogonalEdgeStyle;rounded=0;orthogonalLoop=1;jettySize=auto;html=1;exitX=0.5;exitY=1;exitDx=0;exitDy=0;" edge="1" parent="77e6c97f196da883-2" target="cdU9Sef9xlhLWkmTLOWl-19">
          <mxGeometry relative="1" as="geometry">
            <mxPoint x="80" y="290" as="targetPoint" />
            <mxPoint x="80" y="230" as="sourcePoint" />
          </mxGeometry>
        </mxCell>
        <mxCell id="cdU9Sef9xlhLWkmTLOWl-33" value="質問に答える" style="rounded=0;whiteSpace=wrap;html=1;" vertex="1" parent="77e6c97f196da883-2">
          <mxGeometry x="30" y="160" width="100" height="60" as="geometry" />
        </mxCell>
        <mxCell id="77e6c97f196da883-3" value="ChatGPT API" style="swimlane;html=1;startSize=20;" parent="77e6c97f196da883-1" vertex="1">
          <mxGeometry x="160" y="20" width="160" height="670" as="geometry" />
        </mxCell>
        <mxCell id="cdU9Sef9xlhLWkmTLOWl-11" value="ユーザーに&lt;div&gt;質問&lt;/div&gt;" style="shape=loopLimit;whiteSpace=wrap;html=1;" vertex="1" parent="77e6c97f196da883-3">
          <mxGeometry x="30" y="150" width="100" height="80" as="geometry" />
        </mxCell>
        <mxCell id="cdU9Sef9xlhLWkmTLOWl-16" value="" style="endArrow=classic;html=1;rounded=0;entryX=0;entryY=0.5;entryDx=0;entryDy=0;" edge="1" parent="77e6c97f196da883-3" target="cdU9Sef9xlhLWkmTLOWl-11">
          <mxGeometry width="50" height="50" relative="1" as="geometry">
            <mxPoint x="-30" y="190" as="sourcePoint" />
            <mxPoint x="20" y="140" as="targetPoint" />
          </mxGeometry>
        </mxCell>
        <mxCell id="cdU9Sef9xlhLWkmTLOWl-23" value="文章解析&lt;div&gt;現在の気分評価&lt;/div&gt;" style="rounded=0;whiteSpace=wrap;html=1;" vertex="1" parent="77e6c97f196da883-3">
          <mxGeometry x="20" y="300" width="120" height="60" as="geometry" />
        </mxCell>
        <mxCell id="77e6c97f196da883-4" value="ユーザー（ジャーナリング）" style="swimlane;html=1;startSize=20;" parent="77e6c97f196da883-1" vertex="1">
          <mxGeometry x="320" y="20" width="160" height="670" as="geometry" />
        </mxCell>
        <mxCell id="LaZB-A_bQYklIuyLhnLg-16" style="edgeStyle=orthogonalEdgeStyle;rounded=0;orthogonalLoop=1;jettySize=auto;html=1;exitX=0.5;exitY=1;exitDx=0;exitDy=0;entryX=0.5;entryY=0;entryDx=0;entryDy=0;" parent="77e6c97f196da883-4" source="77e6c97f196da883-13" target="LaZB-A_bQYklIuyLhnLg-5" edge="1">
          <mxGeometry relative="1" as="geometry" />
        </mxCell>
        <mxCell id="77e6c97f196da883-13" value="&lt;div&gt;&lt;font style=&quot;font-size: 12px;&quot;&gt;画面移動&lt;/font&gt;&lt;/div&gt;&lt;div&gt;&lt;font style=&quot;font-size: 12px;&quot;&gt;（&lt;/font&gt;&lt;span style=&quot;font-size: 12px; background-color: initial;&quot;&gt;ジャーナリングは&lt;/span&gt;&lt;/div&gt;&lt;div&gt;&lt;span style=&quot;font-size: 12px; background-color: initial;&quot;&gt;デフォルト）&lt;/span&gt;&lt;/div&gt;" style="rhombus;whiteSpace=wrap;html=1;rounded=0;shadow=0;labelBackgroundColor=none;strokeWidth=1;fontFamily=Verdana;fontSize=8;align=center;" parent="77e6c97f196da883-4" vertex="1">
          <mxGeometry x="5" y="145" width="150" height="90" as="geometry" />
        </mxCell>
        <mxCell id="LaZB-A_bQYklIuyLhnLg-15" style="edgeStyle=orthogonalEdgeStyle;rounded=0;orthogonalLoop=1;jettySize=auto;html=1;exitX=0.5;exitY=1;exitDx=0;exitDy=0;entryX=0.5;entryY=0;entryDx=0;entryDy=0;" parent="77e6c97f196da883-4" source="77e6c97f196da883-11" target="77e6c97f196da883-13" edge="1">
          <mxGeometry relative="1" as="geometry" />
        </mxCell>
        <mxCell id="77e6c97f196da883-11" value="&lt;div&gt;&lt;span style=&quot;font-size: 12px;&quot;&gt;ユーザー登録/&lt;/span&gt;&lt;/div&gt;&lt;span style=&quot;font-size: 12px;&quot;&gt;ログイン&lt;/span&gt;" style="rounded=1;whiteSpace=wrap;html=1;shadow=0;labelBackgroundColor=none;strokeWidth=1;fontFamily=Verdana;fontSize=8;align=center;" parent="77e6c97f196da883-4" vertex="1">
          <mxGeometry x="30" y="50" width="100" height="60" as="geometry" />
        </mxCell>
        <mxCell id="LaZB-A_bQYklIuyLhnLg-5" value="ジャーナリング&lt;div&gt;記入&lt;/div&gt;&lt;div&gt;保存&lt;/div&gt;" style="rounded=0;whiteSpace=wrap;html=1;" parent="77e6c97f196da883-4" vertex="1">
          <mxGeometry x="30" y="300" width="100" height="60" as="geometry" />
        </mxCell>
        <mxCell id="cdU9Sef9xlhLWkmTLOWl-8" value="おススメの&lt;div&gt;気分とジャンル&lt;/div&gt;&lt;div&gt;を表示&lt;/div&gt;" style="rounded=0;whiteSpace=wrap;html=1;" vertex="1" parent="77e6c97f196da883-4">
          <mxGeometry x="30" y="410" width="100" height="60" as="geometry" />
        </mxCell>
        <mxCell id="cdU9Sef9xlhLWkmTLOWl-31" value="保存した&lt;div&gt;ジャーナリングを&lt;/div&gt;&lt;div&gt;見る&lt;/div&gt;" style="rounded=0;whiteSpace=wrap;html=1;" vertex="1" parent="77e6c97f196da883-4">
          <mxGeometry x="20" y="550" width="120" height="60" as="geometry" />
        </mxCell>
        <mxCell id="cdU9Sef9xlhLWkmTLOWl-32" value="" style="endArrow=classic;html=1;rounded=0;entryX=1;entryY=0;entryDx=0;entryDy=0;" edge="1" parent="77e6c97f196da883-4" target="cdU9Sef9xlhLWkmTLOWl-31">
          <mxGeometry width="50" height="50" relative="1" as="geometry">
            <mxPoint x="130" y="330" as="sourcePoint" />
            <mxPoint x="190" y="320" as="targetPoint" />
            <Array as="points">
              <mxPoint x="140" y="330" />
              <mxPoint x="140" y="380" />
            </Array>
          </mxGeometry>
        </mxCell>
        <mxCell id="77e6c97f196da883-5" value="DB" style="swimlane;html=1;startSize=20;" parent="77e6c97f196da883-1" vertex="1">
          <mxGeometry x="480" y="20" width="160" height="670" as="geometry" />
        </mxCell>
        <mxCell id="cdU9Sef9xlhLWkmTLOWl-30" style="edgeStyle=orthogonalEdgeStyle;rounded=0;orthogonalLoop=1;jettySize=auto;html=1;exitX=0.5;exitY=1;exitDx=0;exitDy=0;exitPerimeter=0;" edge="1" parent="77e6c97f196da883-5" source="LaZB-A_bQYklIuyLhnLg-8">
          <mxGeometry relative="1" as="geometry">
            <mxPoint x="-20" y="580" as="targetPoint" />
            <Array as="points">
              <mxPoint x="85" y="580" />
            </Array>
          </mxGeometry>
        </mxCell>
        <mxCell id="LaZB-A_bQYklIuyLhnLg-8" value="&lt;div&gt;&lt;br&gt;&lt;/div&gt;履歴機能&lt;div&gt;保存&lt;/div&gt;" style="strokeWidth=2;html=1;shape=mxgraph.flowchart.database;whiteSpace=wrap;" parent="77e6c97f196da883-5" vertex="1">
          <mxGeometry x="30" y="285" width="110" height="90" as="geometry" />
        </mxCell>
        <mxCell id="77e6c97f196da883-6" value="ユーザー（音楽提供）" style="swimlane;html=1;startSize=20;" parent="77e6c97f196da883-1" vertex="1">
          <mxGeometry x="640" y="20" width="160" height="670" as="geometry" />
        </mxCell>
        <mxCell id="LaZB-A_bQYklIuyLhnLg-4" value="&lt;div&gt;&lt;span style=&quot;background-color: initial;&quot;&gt;気分とジャンル&lt;/span&gt;&lt;br&gt;&lt;/div&gt;&lt;div&gt;の選択&lt;/div&gt;" style="rounded=0;whiteSpace=wrap;html=1;" parent="77e6c97f196da883-6" vertex="1">
          <mxGeometry x="20" y="410" width="120" height="60" as="geometry" />
        </mxCell>
        <mxCell id="cdU9Sef9xlhLWkmTLOWl-28" value="おススメから&lt;div&gt;音楽を選んで視聴&lt;/div&gt;" style="rounded=0;whiteSpace=wrap;html=1;" vertex="1" parent="77e6c97f196da883-6">
          <mxGeometry x="20" y="530" width="120" height="60" as="geometry" />
        </mxCell>
        <mxCell id="cdU9Sef9xlhLWkmTLOWl-27" style="edgeStyle=orthogonalEdgeStyle;rounded=0;orthogonalLoop=1;jettySize=auto;html=1;exitX=0.5;exitY=1;exitDx=0;exitDy=0;" edge="1" parent="77e6c97f196da883-6" source="LaZB-A_bQYklIuyLhnLg-4" target="cdU9Sef9xlhLWkmTLOWl-28">
          <mxGeometry relative="1" as="geometry">
            <mxPoint x="80" y="520" as="targetPoint" />
          </mxGeometry>
        </mxCell>
        <mxCell id="77e6c97f196da883-7" value="Spotify API" style="swimlane;html=1;startSize=20;" parent="77e6c97f196da883-1" vertex="1">
          <mxGeometry x="800" y="20" width="160" height="670" as="geometry" />
        </mxCell>
        <mxCell id="cdU9Sef9xlhLWkmTLOWl-24" value="設定した&lt;div&gt;気分とジャンルに&lt;div&gt;適した音楽提供&lt;/div&gt;&lt;/div&gt;" style="rounded=0;whiteSpace=wrap;html=1;" vertex="1" parent="77e6c97f196da883-7">
          <mxGeometry x="20" y="410" width="120" height="60" as="geometry" />
        </mxCell>
        <mxCell id="LaZB-A_bQYklIuyLhnLg-10" style="edgeStyle=orthogonalEdgeStyle;rounded=0;orthogonalLoop=1;jettySize=auto;html=1;exitX=0;exitY=0.5;exitDx=0;exitDy=0;entryX=1;entryY=0.5;entryDx=0;entryDy=0;" parent="77e6c97f196da883-1" source="77e6c97f196da883-13" target="cdU9Sef9xlhLWkmTLOWl-11" edge="1">
          <mxGeometry relative="1" as="geometry">
            <mxPoint x="300" y="210" as="targetPoint" />
          </mxGeometry>
        </mxCell>
        <mxCell id="LaZB-A_bQYklIuyLhnLg-11" style="edgeStyle=orthogonalEdgeStyle;rounded=0;orthogonalLoop=1;jettySize=auto;html=1;exitX=1;exitY=0.5;exitDx=0;exitDy=0;" parent="77e6c97f196da883-1" source="77e6c97f196da883-13" target="LaZB-A_bQYklIuyLhnLg-4" edge="1">
          <mxGeometry relative="1" as="geometry" />
        </mxCell>
        <mxCell id="LaZB-A_bQYklIuyLhnLg-17" style="edgeStyle=orthogonalEdgeStyle;rounded=0;orthogonalLoop=1;jettySize=auto;html=1;exitX=1;exitY=0.5;exitDx=0;exitDy=0;entryX=0;entryY=0.5;entryDx=0;entryDy=0;entryPerimeter=0;" parent="77e6c97f196da883-1" source="LaZB-A_bQYklIuyLhnLg-5" target="LaZB-A_bQYklIuyLhnLg-8" edge="1">
          <mxGeometry relative="1" as="geometry" />
        </mxCell>
        <mxCell id="cdU9Sef9xlhLWkmTLOWl-3" value="" style="edgeStyle=orthogonalEdgeStyle;rounded=0;orthogonalLoop=1;jettySize=auto;html=1;" edge="1" parent="77e6c97f196da883-1" source="LaZB-A_bQYklIuyLhnLg-5">
          <mxGeometry relative="1" as="geometry">
            <mxPoint x="300" y="350" as="targetPoint" />
          </mxGeometry>
        </mxCell>
        <mxCell id="cdU9Sef9xlhLWkmTLOWl-9" value="" style="endArrow=classic;html=1;rounded=0;exitX=1;exitY=0.5;exitDx=0;exitDy=0;entryX=0;entryY=0.5;entryDx=0;entryDy=0;" edge="1" parent="77e6c97f196da883-1" source="cdU9Sef9xlhLWkmTLOWl-8" target="LaZB-A_bQYklIuyLhnLg-4">
          <mxGeometry width="50" height="50" relative="1" as="geometry">
            <mxPoint x="450" y="390" as="sourcePoint" />
            <mxPoint x="500" y="340" as="targetPoint" />
          </mxGeometry>
        </mxCell>
        <mxCell id="cdU9Sef9xlhLWkmTLOWl-14" value="" style="edgeStyle=orthogonalEdgeStyle;rounded=0;orthogonalLoop=1;jettySize=auto;html=1;" edge="1" parent="77e6c97f196da883-1" source="cdU9Sef9xlhLWkmTLOWl-11">
          <mxGeometry relative="1" as="geometry">
            <mxPoint x="130" y="210" as="targetPoint" />
          </mxGeometry>
        </mxCell>
        <mxCell id="cdU9Sef9xlhLWkmTLOWl-20" value="" style="endArrow=classic;html=1;rounded=0;exitX=1;exitY=0.5;exitDx=0;exitDy=0;entryX=0;entryY=0.5;entryDx=0;entryDy=0;" edge="1" parent="77e6c97f196da883-1" source="cdU9Sef9xlhLWkmTLOWl-19">
          <mxGeometry width="50" height="50" relative="1" as="geometry">
            <mxPoint x="460" y="390" as="sourcePoint" />
            <mxPoint x="180" y="350" as="targetPoint" />
            <Array as="points" />
          </mxGeometry>
        </mxCell>
        <mxCell id="cdU9Sef9xlhLWkmTLOWl-26" style="edgeStyle=orthogonalEdgeStyle;rounded=0;orthogonalLoop=1;jettySize=auto;html=1;exitX=0;exitY=0.5;exitDx=0;exitDy=0;entryX=1;entryY=0.5;entryDx=0;entryDy=0;" edge="1" parent="77e6c97f196da883-1" source="cdU9Sef9xlhLWkmTLOWl-24" target="LaZB-A_bQYklIuyLhnLg-4">
          <mxGeometry relative="1" as="geometry" />
        </mxCell>
        <mxCell id="cdU9Sef9xlhLWkmTLOWl-7" value="" style="endArrow=classic;html=1;rounded=0;exitX=0.5;exitY=1;exitDx=0;exitDy=0;" edge="1" parent="1" source="cdU9Sef9xlhLWkmTLOWl-23">
          <mxGeometry width="50" height="50" relative="1" as="geometry">
            <mxPoint x="310" y="430" as="sourcePoint" />
            <mxPoint x="420" y="500" as="targetPoint" />
            <Array as="points">
              <mxPoint x="310" y="500" />
            </Array>
          </mxGeometry>
        </mxCell>
      </root>
    </mxGraphModel>
  </diagram>
</mxfile>
